<svg xmlns="http://www.w3.org/2000/svg" width="64" height="64" viewBox="0 0 64 64">
  <defs>
    <linearGradient id="bg" x1="10%" x2="90%" y1="0%" y2="100%">
      <stop offset="0%" stop-color="#081120" />
      <stop offset="55%" stop-color="#173b6b" />
      <stop offset="100%" stop-color="#6d28d9" />
    </linearGradient>
    <linearGradient id="paper" x1="0%" x2="100%" y1="0%" y2="100%">
      <stop offset="0%" stop-color="#eff6ff" />
      <stop offset="100%" stop-color="#c7d2fe" />
    </linearGradient>
    <linearGradient id="accent" x1="0%" x2="100%" y1="0%" y2="100%">
      <stop offset="0%" stop-color="#38bdf8" />
      <stop offset="100%" stop-color="#a78bfa" />
    </linearGradient>
  </defs>

  <rect width="64" height="64" rx="16" fill="url(#bg)" />

  <g transform="rotate(-8 22 31)">
    <rect x="11" y="15" width="19" height="28" rx="5" fill="#06101d" stroke="rgba(255,255,255,0.16)" />
    <rect x="13.5" y="18.5" width="14" height="18" rx="2.5" fill="url(#paper)" />
    <path d="M16.5 23h8" stroke="#93c5fd" stroke-linecap="round" stroke-width="1.8" />
    <path d="M16.5 27h6.5" stroke="#c4b5fd" stroke-linecap="round" stroke-width="1.8" />
  </g>

  <g transform="rotate(8 42 33)">
    <rect x="34" y="18" width="19" height="28" rx="5" fill="#06101d" stroke="rgba(255,255,255,0.16)" />
    <rect x="36.5" y="21.5" width="14" height="18" rx="2.5" fill="url(#paper)" />
    <path d="M39.5 26h8" stroke="#93c5fd" stroke-linecap="round" stroke-width="1.8" />
    <path d="M39.5 30h6.5" stroke="#c4b5fd" stroke-linecap="round" stroke-width="1.8" />
  </g>

  <circle cx="32" cy="32" r="7.5" fill="#081120" stroke="rgba(255,255,255,0.16)" />
  <path d="M28.5 32h7" stroke="url(#accent)" stroke-linecap="round" stroke-width="2.8" />
  <path d="m32 28.8 3.6 3.2-3.6 3.2" fill="none" stroke="#a78bfa" stroke-linecap="round" stroke-linejoin="round" stroke-width="2.8" />
  <path d="m32 35.2-3.6-3.2 3.6-3.2" fill="none" stroke="#38bdf8" stroke-linecap="round" stroke-linejoin="round" stroke-width="2.8" />
</svg>