<svg xmlns="http://www.w3.org/2000/svg" viewBox="0 0 512 512">
  <defs>
    <linearGradient id="bg" x1="10%" x2="90%" y1="0%" y2="100%">
      <stop offset="0%" stop-color="#081120" />
      <stop offset="55%" stop-color="#173b6b" />
      <stop offset="100%" stop-color="#6d28d9" />
    </linearGradient>
    <linearGradient id="card" x1="0%" x2="100%" y1="0%" y2="100%">
      <stop offset="0%" stop-color="#eff6ff" />
      <stop offset="100%" stop-color="#c7d2fe" />
    </linearGradient>
    <linearGradient id="accent" x1="0%" x2="100%" y1="0%" y2="100%">
      <stop offset="0%" stop-color="#38bdf8" />
      <stop offset="100%" stop-color="#a78bfa" />
    </linearGradient>
    <radialGradient id="glow" cx="50%" cy="40%" r="60%">
      <stop offset="0%" stop-color="#38bdf8" stop-opacity="0.28" />
      <stop offset="100%" stop-color="#38bdf8" stop-opacity="0" />
    </radialGradient>
  </defs>

  <rect width="512" height="512" rx="116" fill="url(#bg)" />
  <rect width="512" height="512" rx="116" fill="url(#glow)" />

  <g opacity="0.18">
    <circle cx="118" cy="118" r="36" fill="#7dd3fc" />
    <circle cx="404" cy="108" r="22" fill="#c4b5fd" />
    <circle cx="392" cy="402" r="28" fill="#7dd3fc" />
  </g>

  <g transform="rotate(-8 178 250)">
    <rect x="96" y="122" width="164" height="228" rx="30" fill="#06101d" stroke="rgba(255,255,255,0.12)" stroke-width="8" />
    <rect x="118" y="150" width="120" height="152" rx="18" fill="url(#card)" />
    <path d="M144 186h68" stroke="#93c5fd" stroke-linecap="round" stroke-width="12" />
    <path d="M144 218h54" stroke="#c4b5fd" stroke-linecap="round" stroke-width="12" />
    <path d="M144 250h78" stroke="#bfdbfe" stroke-linecap="round" stroke-width="12" />
  </g>

  <g transform="rotate(8 334 262)">
    <rect x="252" y="144" width="164" height="228" rx="30" fill="#06101d" stroke="rgba(255,255,255,0.12)" stroke-width="8" />
    <rect x="274" y="172" width="120" height="152" rx="18" fill="url(#card)" />
    <path d="M300 208h68" stroke="#93c5fd" stroke-linecap="round" stroke-width="12" />
    <path d="M300 240h54" stroke="#c4b5fd" stroke-linecap="round" stroke-width="12" />
    <path d="M300 272h78" stroke="#bfdbfe" stroke-linecap="round" stroke-width="12" />
  </g>

  <g>
    <circle cx="256" cy="257" r="54" fill="#081120" stroke="rgba(255,255,255,0.16)" stroke-width="10" />
    <path d="M224 257h64" stroke="url(#accent)" stroke-linecap="round" stroke-width="18" />
    <path d="m258 225 30 32-30 32" fill="none" stroke="#a78bfa" stroke-linecap="round" stroke-linejoin="round" stroke-width="18" />
    <path d="m254 289-30-32 30-32" fill="none" stroke="#38bdf8" stroke-linecap="round" stroke-linejoin="round" stroke-width="18" />
  </g>
</svg>